<mxfile host="Electron" modified="2023-06-01T18:44:39.651Z" agent="Mozilla/5.0 (Macintosh; Intel Mac OS X 10_15_7) AppleWebKit/537.36 (KHTML, like Gecko) draw.io/21.2.8 Chrome/112.0.5615.165 Electron/24.2.0 Safari/537.36" etag="dJrNrPeXz9MhFfKB9QTD" version="21.2.8" type="device">
  <diagram name="Page-1" id="SrcZIJUcf9xMSsVNk3Vf">
    <mxGraphModel dx="954" dy="727" grid="1" gridSize="10" guides="1" tooltips="1" connect="1" arrows="1" fold="1" page="1" pageScale="1" pageWidth="827" pageHeight="1169" math="0" shadow="0">
      <root>
        <mxCell id="0" />
        <mxCell id="1" parent="0" />
        <mxCell id="ckQBHTU_LLh2LS4ip-Hh-16" style="edgeStyle=orthogonalEdgeStyle;rounded=0;orthogonalLoop=1;jettySize=auto;html=1;exitX=0.5;exitY=0.5;exitDx=0;exitDy=0;exitPerimeter=0;entryX=0;entryY=0.5;entryDx=0;entryDy=0;" edge="1" parent="1" source="ckQBHTU_LLh2LS4ip-Hh-1" target="ckQBHTU_LLh2LS4ip-Hh-15">
          <mxGeometry relative="1" as="geometry" />
        </mxCell>
        <mxCell id="ckQBHTU_LLh2LS4ip-Hh-17" style="edgeStyle=orthogonalEdgeStyle;rounded=0;orthogonalLoop=1;jettySize=auto;html=1;exitX=0.5;exitY=0.5;exitDx=0;exitDy=0;exitPerimeter=0;entryX=0;entryY=0.5;entryDx=0;entryDy=0;" edge="1" parent="1" source="ckQBHTU_LLh2LS4ip-Hh-1" target="ckQBHTU_LLh2LS4ip-Hh-14">
          <mxGeometry relative="1" as="geometry" />
        </mxCell>
        <mxCell id="ckQBHTU_LLh2LS4ip-Hh-18" style="edgeStyle=orthogonalEdgeStyle;rounded=0;orthogonalLoop=1;jettySize=auto;html=1;exitX=0.5;exitY=0.5;exitDx=0;exitDy=0;exitPerimeter=0;entryX=0;entryY=0.5;entryDx=0;entryDy=0;" edge="1" parent="1" source="ckQBHTU_LLh2LS4ip-Hh-1" target="ckQBHTU_LLh2LS4ip-Hh-13">
          <mxGeometry relative="1" as="geometry" />
        </mxCell>
        <mxCell id="ckQBHTU_LLh2LS4ip-Hh-19" style="edgeStyle=orthogonalEdgeStyle;rounded=0;orthogonalLoop=1;jettySize=auto;html=1;exitX=0.5;exitY=0.5;exitDx=0;exitDy=0;exitPerimeter=0;entryX=0;entryY=0.5;entryDx=0;entryDy=0;" edge="1" parent="1" source="ckQBHTU_LLh2LS4ip-Hh-1" target="ckQBHTU_LLh2LS4ip-Hh-12">
          <mxGeometry relative="1" as="geometry" />
        </mxCell>
        <mxCell id="ckQBHTU_LLh2LS4ip-Hh-20" style="edgeStyle=orthogonalEdgeStyle;rounded=0;orthogonalLoop=1;jettySize=auto;html=1;exitX=0.5;exitY=0.5;exitDx=0;exitDy=0;exitPerimeter=0;entryX=0;entryY=0.5;entryDx=0;entryDy=0;" edge="1" parent="1" source="ckQBHTU_LLh2LS4ip-Hh-1" target="ckQBHTU_LLh2LS4ip-Hh-11">
          <mxGeometry relative="1" as="geometry" />
        </mxCell>
        <mxCell id="ckQBHTU_LLh2LS4ip-Hh-1" value="Cliente" style="shape=umlActor;verticalLabelPosition=bottom;verticalAlign=top;html=1;outlineConnect=0;" vertex="1" parent="1">
          <mxGeometry x="10" y="340" width="30" height="60" as="geometry" />
        </mxCell>
        <mxCell id="ckQBHTU_LLh2LS4ip-Hh-23" style="edgeStyle=orthogonalEdgeStyle;rounded=0;orthogonalLoop=1;jettySize=auto;html=1;exitX=0.5;exitY=0.5;exitDx=0;exitDy=0;exitPerimeter=0;entryX=1;entryY=0.5;entryDx=0;entryDy=0;" edge="1" parent="1" source="ckQBHTU_LLh2LS4ip-Hh-3" target="ckQBHTU_LLh2LS4ip-Hh-21">
          <mxGeometry relative="1" as="geometry" />
        </mxCell>
        <mxCell id="ckQBHTU_LLh2LS4ip-Hh-24" style="edgeStyle=orthogonalEdgeStyle;rounded=0;orthogonalLoop=1;jettySize=auto;html=1;exitX=0.5;exitY=0.5;exitDx=0;exitDy=0;exitPerimeter=0;entryX=1;entryY=0.5;entryDx=0;entryDy=0;" edge="1" parent="1" source="ckQBHTU_LLh2LS4ip-Hh-3" target="ckQBHTU_LLh2LS4ip-Hh-22">
          <mxGeometry relative="1" as="geometry" />
        </mxCell>
        <mxCell id="ckQBHTU_LLh2LS4ip-Hh-3" value="Pickup Employee" style="shape=umlActor;verticalLabelPosition=bottom;verticalAlign=top;html=1;outlineConnect=0;" vertex="1" parent="1">
          <mxGeometry x="520" y="210" width="30" height="60" as="geometry" />
        </mxCell>
        <mxCell id="ckQBHTU_LLh2LS4ip-Hh-11" value="Ver Produtos" style="ellipse;whiteSpace=wrap;html=1;" vertex="1" parent="1">
          <mxGeometry x="100" y="160" width="120" height="80" as="geometry" />
        </mxCell>
        <mxCell id="ckQBHTU_LLh2LS4ip-Hh-12" value="Adicionar Produto ao carrinho" style="ellipse;whiteSpace=wrap;html=1;" vertex="1" parent="1">
          <mxGeometry x="100" y="260" width="120" height="80" as="geometry" />
        </mxCell>
        <mxCell id="ckQBHTU_LLh2LS4ip-Hh-13" value="Fazer Checkout" style="ellipse;whiteSpace=wrap;html=1;" vertex="1" parent="1">
          <mxGeometry x="100" y="360" width="120" height="80" as="geometry" />
        </mxCell>
        <mxCell id="ckQBHTU_LLh2LS4ip-Hh-14" value="Escolher Pickup" style="ellipse;whiteSpace=wrap;html=1;" vertex="1" parent="1">
          <mxGeometry x="100" y="460" width="120" height="80" as="geometry" />
        </mxCell>
        <mxCell id="ckQBHTU_LLh2LS4ip-Hh-15" value="Ver encomendas" style="ellipse;whiteSpace=wrap;html=1;" vertex="1" parent="1">
          <mxGeometry x="100" y="560" width="120" height="80" as="geometry" />
        </mxCell>
        <mxCell id="ckQBHTU_LLh2LS4ip-Hh-21" value="Ver encomendas e os seus estados" style="ellipse;whiteSpace=wrap;html=1;" vertex="1" parent="1">
          <mxGeometry x="330" y="160" width="120" height="80" as="geometry" />
        </mxCell>
        <mxCell id="ckQBHTU_LLh2LS4ip-Hh-22" value="Alterar o estado de uma encomenda" style="ellipse;whiteSpace=wrap;html=1;" vertex="1" parent="1">
          <mxGeometry x="330" y="250" width="120" height="80" as="geometry" />
        </mxCell>
        <mxCell id="ckQBHTU_LLh2LS4ip-Hh-29" style="edgeStyle=orthogonalEdgeStyle;rounded=0;orthogonalLoop=1;jettySize=auto;html=1;exitX=0.5;exitY=0.5;exitDx=0;exitDy=0;exitPerimeter=0;entryX=1;entryY=0.5;entryDx=0;entryDy=0;" edge="1" parent="1" source="ckQBHTU_LLh2LS4ip-Hh-25" target="ckQBHTU_LLh2LS4ip-Hh-27">
          <mxGeometry relative="1" as="geometry" />
        </mxCell>
        <mxCell id="ckQBHTU_LLh2LS4ip-Hh-30" style="edgeStyle=orthogonalEdgeStyle;rounded=0;orthogonalLoop=1;jettySize=auto;html=1;exitX=0.5;exitY=0.5;exitDx=0;exitDy=0;exitPerimeter=0;entryX=1;entryY=0.5;entryDx=0;entryDy=0;" edge="1" parent="1" source="ckQBHTU_LLh2LS4ip-Hh-25" target="ckQBHTU_LLh2LS4ip-Hh-26">
          <mxGeometry relative="1" as="geometry" />
        </mxCell>
        <mxCell id="ckQBHTU_LLh2LS4ip-Hh-31" style="edgeStyle=orthogonalEdgeStyle;rounded=0;orthogonalLoop=1;jettySize=auto;html=1;exitX=0.5;exitY=0.5;exitDx=0;exitDy=0;exitPerimeter=0;entryX=1;entryY=0.5;entryDx=0;entryDy=0;" edge="1" parent="1" source="ckQBHTU_LLh2LS4ip-Hh-25" target="ckQBHTU_LLh2LS4ip-Hh-28">
          <mxGeometry relative="1" as="geometry" />
        </mxCell>
        <mxCell id="ckQBHTU_LLh2LS4ip-Hh-25" value="Platform admin" style="shape=umlActor;verticalLabelPosition=bottom;verticalAlign=top;html=1;outlineConnect=0;" vertex="1" parent="1">
          <mxGeometry x="520" y="480" width="30" height="60" as="geometry" />
        </mxCell>
        <mxCell id="ckQBHTU_LLh2LS4ip-Hh-26" value="Ver encomendas" style="ellipse;whiteSpace=wrap;html=1;" vertex="1" parent="1">
          <mxGeometry x="330" y="380" width="120" height="80" as="geometry" />
        </mxCell>
        <mxCell id="ckQBHTU_LLh2LS4ip-Hh-27" value="Ver pickups" style="ellipse;whiteSpace=wrap;html=1;" vertex="1" parent="1">
          <mxGeometry x="330" y="470" width="120" height="80" as="geometry" />
        </mxCell>
        <mxCell id="ckQBHTU_LLh2LS4ip-Hh-28" value="Aceitar novos pickups" style="ellipse;whiteSpace=wrap;html=1;" vertex="1" parent="1">
          <mxGeometry x="330" y="560" width="120" height="80" as="geometry" />
        </mxCell>
        <mxCell id="ckQBHTU_LLh2LS4ip-Hh-33" value="eStore" style="swimlane;whiteSpace=wrap;html=1;" vertex="1" parent="1">
          <mxGeometry x="90" y="80" width="140" height="580" as="geometry" />
        </mxCell>
        <mxCell id="ckQBHTU_LLh2LS4ip-Hh-34" value="Platform" style="swimlane;whiteSpace=wrap;html=1;" vertex="1" parent="1">
          <mxGeometry x="310" y="80" width="160" height="580" as="geometry" />
        </mxCell>
      </root>
    </mxGraphModel>
  </diagram>
</mxfile>
